<svg xmlns="http://www.w3.org/2000/svg" viewBox="0 0 512 512">
  <defs>
    <linearGradient id="grad" x1="0%" y1="0%" x2="100%" y2="100%">
      <stop offset="0%" style="stop-color:#6366f1;stop-opacity:1" />
      <stop offset="100%" style="stop-color:#8b5cf6;stop-opacity:1" />
    </linearGradient>
  </defs>
  <rect width="512" height="512" rx="64" fill="url(#grad)"/>
  <g fill="white">
    <!-- AI Brain Icon -->
    <path d="M256 100c-86 0-156 70-156 156s70 156 156 156 156-70 156-156-70-156-156-156zm0 280c-68.4 0-124-55.6-124-124s55.6-124 124-124 124 55.6 124 124-55.6 124-124 124z"/>
    <!-- Neural Network Nodes -->
    <circle cx="256" cy="200" r="24"/>
    <circle cx="196" cy="280" r="20"/>
    <circle cx="316" cy="280" r="20"/>
    <circle cx="226" cy="340" r="16"/>
    <circle cx="286" cy="340" r="16"/>
    <!-- Connections -->
    <line x1="256" y1="224" x2="196" y2="260" stroke="white" stroke-width="6"/>
    <line x1="256" y1="224" x2="316" y2="260" stroke="white" stroke-width="6"/>
    <line x1="196" y1="300" x2="226" y2="324" stroke="white" stroke-width="4"/>
    <line x1="316" y1="300" x2="286" y2="324" stroke="white" stroke-width="4"/>
    <line x1="226" y1="340" x2="286" y2="340" stroke="white" stroke-width="4"/>
  </g>
  <!-- ML Text -->
  <text x="256" y="420" font-family="Arial, sans-serif" font-size="48" font-weight="bold" fill="white" text-anchor="middle">AI/ML</text>
</svg>
